<svg xmlns="http://www.w3.org/2000/svg" width="2377" height="885" viewBox="-12.8 0 2377 885" xml:space="preserve">
  <path d="M2230.9 245.1c14.3 0 30.4 10.9 48.3 32.6 40.1 48.7 66.9 116.4 80.4 203.3 6.7 43.8 5.8 87.6-2.8 131.5-15.7 77.9-57.1 140.2-124.2 187-78.6 54.3-157.2 82.8-235.9 85.4-141.5 4.9-231.2-44-269.1-146.6-9.7-28.1-11.2-62.3-4.5-102.8 13.1-83.1 48.7-166.8 106.8-251.1 3.3-4.5 7.4-6.3 12.3-5.6 5.3.7 8.8 3.2 10.7 7.3 1.9 4.1 1.3 9.2-1.7 15.2-50.5 73.3-76.6 135.1-78.1 185.3-1.5 50.2 16.7 93.3 54.5 129.2 37.8 35.6 94.5 51.9 170.2 48.9 97-4.1 188.2-39.9 273.6-107.3 37.8-29.9 57.6-58.8 59.5-86.5 1.9-27.7-7.9-52.3-29.2-73.6-47.5 49.1-96 65.4-145.5 48.9-62.9-21-77.5-76.2-43.8-165.7 33.8-89.8 73.3-135 118.5-135.4zm5.1 157.3c-16.5-18.3-30.9-27.5-43.3-27.5-12.3 0-23.6 7.8-33.7 23.5 10.1 11.3 22.7 17.5 37.7 18.6 15 .8 28.1-4.1 39.3-14.6zM2189.4 58l37-55c1.9-3 4.7-3.8 8.5-2.3 27.3 9.4 51.8 23.8 73.5 43.3 3 2.6 3.6 5.6 1.7 9l-50 78.1c-1.9 3-5.2 2.4-10.1-1.7-4.1-3.4-23.6-15.6-58.4-36.5l-38.8 61.8c-2.2 3-5.7 2.4-10.6-1.7-4.9-4.1-29-19.3-72.5-45.5-2.6-1.9-3.2-3.9-1.7-6.2l50.6-75.3c1.9-2.6 4.9-3.3 9-2.2 22.5 7.9 43.1 19.3 61.8 34.2z"/>
  <path fill="#FFF" d="M1080 297.3c-7.8 8.3-15.3 15.3-22.4 20.9-7.1 5.7-14 10.2-20.7 13.6-6.6 3.4-13.2 5.8-19.6 7.3-6.4 1.5-12.8 2.2-19.1 2.2-11.3 0-22.5-2.6-33.4-7.7-10.9-5.1-20.7-12.5-29.3-22.1-8.7-9.6-15.6-21.4-20.9-35.3-5.3-13.9-8-29.7-8-47.4 0-19.5 3-37.1 8.9-53 5.9-15.8 13.9-29.3 24-40.6 10.1-11.2 21.9-19.8 35.3-25.9 13.4-6.1 27.6-9.1 42.6-9.1 13.2 0 24.7 1.8 34.6 5.3 9.9 3.5 18.1 7.9 24.4 13 .7.6.5 1.8-.5 3.7-1.1 1.8-2.6 3.9-4.5 6.2-1.9 2.3-3.9 4.6-6 6.9-2.1 2.3-3.9 4.2-5.4 5.7l-6.4-1.1c-6.2-5.7-13.6-10.4-22.1-14.1-8.5-3.7-18.3-5.5-29.4-5.5-4.1 0-8.7.8-13.6 2.3-4.9 1.5-9.9 3.9-14.9 7.2-5 3.3-9.8 7.6-14.4 12.9-4.6 5.3-8.7 11.7-12.3 19.3-3.6 7.6-6.5 16.3-8.6 26.2-2.1 9.9-3.2 21.2-3.2 33.9 0 16.2 2.3 30.4 7 42.6 4.7 12.2 10.7 22.3 18.1 30.4 7.4 8.1 15.6 14.2 24.7 18.3 9.1 4.1 17.9 6.1 26.6 6.1 6.6 0 15.2-2.3 25.8-6.8 10.6-4.5 22.6-12.4 36-23.6.6.2 1.2.8 1.9 1.6s1.3 1.6 1.9 2.5c.6.9 1.2 1.7 1.6 2.5.5.7.9 1.3 1.3 1.6zM1268.3 247.3c0 8.2-1 16.1-3.1 23.9-2.1 7.8-4.9 15.2-8.6 22.1-3.7 6.9-8 13.4-13.2 19.3-5.1 5.9-10.8 11-16.9 15.3-6.2 4.3-12.7 7.6-19.6 10s-14.1 3.6-21.6 3.6c-11.6 0-22-2.2-31.3-6.6-9.3-4.4-17.3-10.4-23.9-18.1-6.6-7.7-11.8-16.8-15.4-27.4-3.6-10.6-5.4-22.1-5.4-34.5 0-8 1-16 3-23.7 2-7.8 4.8-15.2 8.4-22.2 3.6-7 7.9-13.5 13-19.4 5.1-5.9 10.7-11 16.8-15.3 6.2-4.3 12.8-7.6 19.9-10 7.1-2.4 14.5-3.7 22-3.7 11.5 0 21.8 2.2 31.2 6.6s17.3 10.4 23.9 18.2c6.6 7.7 11.8 16.9 15.4 27.5 3.6 10.5 5.4 22 5.4 34.4zm-28.4 5.5c0-9.6-1.6-18.8-4.8-27.5-3.2-8.7-7.3-16.4-12.2-23-5-6.6-10.7-11.9-17-15.8-6.3-3.9-12.6-5.8-18.8-5.8-9.3 0-17.1 1.8-23.4 5.3-6.3 3.5-11.4 8.4-15.3 14.5-3.8 6.2-6.6 13.4-8.3 21.8-1.7 8.4-2.6 17.5-2.6 27.2 0 9.6 1.7 18.8 5.1 27.5 3.4 8.7 7.7 16.3 12.9 22.9 5.2 6.6 10.9 11.8 17.1 15.6 6.2 3.8 12.1 5.8 17.7 5.8 8.7 0 16.1-1.6 22.3-4.8 6.2-3.2 11.3-7.8 15.4-13.8 4-6 7-13.2 9-21.6 2-8.4 2.9-17.9 2.9-28.3zM1423.6 167.3c1.1.7 1.6 2.9 1.6 6.4-.1 3.5-.5 7.6-1.5 12.2-.9 4.6-2.1 9.4-3.6 14.2-1.5 4.9-2.9 9-4.4 12.2h-7.9c-.7-4.9-1.8-9-3.1-12.4-1.3-3.4-2.9-6.1-4.7-8.1-1.8-2-3.7-3.5-5.8-4.4-2.1-.9-4.4-1.4-6.7-1.4-2.7 0-5.8 1.1-9.4 3.4-3.6 2.3-7.3 5.8-11.1 10.6s-7.5 11-11.2 18.4c-3.7 7.5-7 16.4-10 26.8v71.6c0 1.8 2.3 3.7 6.9 5.7 4.6 1.9 12.6 3.8 24 5.5v7.9h-83.9V328c8-1.8 14.3-3.6 18.8-5.4 4.5-1.8 6.8-3.7 6.8-5.8V210.6c0-4-.1-7.4-.4-10.1-.2-2.7-.5-5-.9-6.7-.4-1.7-.8-3-1.4-4-.5-1-1.1-1.8-1.6-2.4-.9-.9-1.8-1.6-2.8-2.1-1-.5-2.4-1-4-1.4-1.6-.4-3.6-.6-5.9-.8-2.3-.2-5.2-.4-8.6-.6v-7.3c7.9-2.1 15.7-4.2 23.3-6.3 7.6-2.1 14.5-4.9 20.6-8.3l6.4 6.4 2.4 41.5c3.3-6.7 6.9-13 10.7-18.8 3.8-5.8 8-10.9 12.3-15.3 4.4-4.3 9-7.7 13.8-10.1 4.8-2.4 9.8-3.7 15.1-3.7 3.9 0 8.1.5 12.6 1.5 4.6.9 9.1 2.6 13.6 5.2zM1614.8 246c0 7.1-.9 14.3-2.7 21.7-1.8 7.4-4.3 14.7-7.5 21.7-3.2 7.1-6.9 13.8-11.3 20.1-4.4 6.3-9.2 11.8-14.3 16.5-5.2 4.7-10.6 8.4-16.4 11.1-5.7 2.7-11.6 4.1-17.5 4.1-7.2 0-15.3-2-24.3-6s-17.9-9.8-26.5-17.4v86.4c0 1.9 2.3 3.9 6.9 5.8 4.6 1.9 12.6 3.8 24 5.5v7.9h-83.9v-7.9c8-1.9 14.3-3.8 18.8-5.6 4.5-1.8 6.8-3.7 6.8-5.8V206c0-4.5-.2-8.2-.7-11.1-.5-2.9-1.6-5.3-3.4-7-1.8-1.8-4.3-3-7.7-3.8-3.4-.8-8-1.3-13.8-1.6v-7.3c4.1-.9 8.1-1.8 11.9-2.8 3.8-1 7.4-2.1 11-3.3 3.5-1.2 7-2.4 10.5-3.8s7-3 10.5-4.7l6.4 6.4 1.6 36.2c6.1-7.3 12.2-13.6 18.4-19 6.2-5.4 12-9.8 17.6-13.2 5.6-3.5 10.8-6.1 15.6-7.8 4.8-1.7 9-2.6 12.5-2.6 8.3 0 16 1.9 23 5.8 7.1 3.9 13.2 9.5 18.3 16.9 5.1 7.4 9.1 16.3 12 26.9 2.8 10.6 4.2 22.5 4.2 35.8zm-24.7 12.1c0-10.6-1.3-20.5-3.7-29.6-2.5-9.1-5.8-17-10-23.7-4.1-6.7-9-11.9-14.4-15.7-5.5-3.8-11.1-5.7-17-5.7-2.2 0-5.1.7-8.6 2s-7.6 3.6-12.1 6.8c-4.5 3.2-9.3 7.4-14.4 12.7-5.1 5.3-10.4 11.8-15.7 19.6V297c5.5 4.1 10.6 7.6 15.3 10.2 4.7 2.7 9.1 4.8 13.2 6.3s8 2.6 11.6 3.2c3.7.6 7.1.9 10.4.9 6.6 0 12.6-1.3 18.2-3.8 5.5-2.6 10.3-6.3 14.3-11.3 4-5 7.2-11.2 9.5-18.6 2.3-7.5 3.4-16.1 3.4-25.8zM1824.8 320.9c-4.5 2.9-8.8 5.6-13 8.1-4.1 2.5-8 4.7-11.5 6.5-3.5 1.8-6.6 3.3-9.3 4.3-2.7 1-4.8 1.6-6.2 1.6-4.3 0-7.7-2.8-10.4-8.5s-4.4-14.8-5.1-27.3c-7.6 7.6-14.5 13.7-20.7 18.4-6.3 4.7-12.1 8.3-17.4 10.9-5.3 2.6-10.2 4.3-14.6 5.2-4.4.9-8.6 1.4-12.5 1.4-5.7 0-11.2-.8-16.5-2.4-5.2-1.6-9.9-4.5-13.9-8.7s-7.2-10-9.6-17.3c-2.4-7.3-3.6-16.7-3.6-28.1v-79c0-5.8-.2-10.4-.5-13.6-.4-3.2-1.3-5.7-2.8-7.3-1.5-1.6-3.9-2.8-7-3.4-3.2-.6-7.6-1.2-13.2-1.8v-7.3c4.4-.5 8.5-1.1 12.3-1.8 3.8-.7 7.6-1.6 11.1-2.6 3.6-1 7.2-2.1 10.9-3.4 3.7-1.3 7.5-2.7 11.5-4.3l5.1 7.1v107.2c0 8.5.6 15.6 1.9 21.4 1.3 5.7 3.1 10.3 5.5 13.7 2.4 3.4 5.3 5.8 8.8 7.3s7.4 2.2 11.8 2.2c3.9 0 7.9-.6 12-1.7 4.1-1.2 8.3-3 12.6-5.5 4.3-2.5 8.9-5.7 13.6-9.7 4.8-4 9.8-8.8 15.2-14.5v-82c0-5.5-.3-9.9-.8-13.2-.5-3.3-1.7-5.8-3.6-7.7-1.8-1.8-4.4-3.1-7.8-3.8-3.4-.7-7.8-1.2-13.4-1.5v-7.3c8.8-1.1 17.2-2.8 25.2-5.1s15.5-4.6 22.3-6.9l5.5 7.1v121.8c0 7.6.3 13.7.8 18.4.5 4.7 1.7 7.7 3.4 9 1.5 1 4 1.2 7.5.6 3.5-.5 8.4-2.2 14.6-4.8l1.8 8.3zM1955.7 284.2c0 8.6-1.2 16-3.7 22.2-2.4 6.2-5.6 11.4-9.5 15.6-3.9 4.3-8.2 7.7-13 10.2s-9.4 4.5-14.1 5.8c-4.6 1.3-9 2.2-13.1 2.6-4.1.4-7.3.6-9.6.6-5.8 0-12.9-1.1-21.1-3.3-8.2-2.2-16.4-5.5-24.6-10-.9-.4-1.4-2.3-1.7-5.9-.3-3.6-.4-7.7-.2-12.4s.5-9.4 1.1-14.2c.5-4.7 1.2-8.5 2.1-11.3l7.9 2c.2 5.1 1.6 9.9 4 14.4s5.7 8.4 9.8 11.7c4.1 3.3 8.8 5.9 14.3 7.9 5.4 1.9 11.3 2.9 17.6 2.9 4.4 0 8.4-.7 12.1-2.1 3.7-1.4 6.8-3.3 9.5-5.8s4.8-5.5 6.2-9c1.5-3.5 2.2-7.4 2.2-11.7 0-4.9-1.3-9.2-3.9-13-2.6-3.8-6.1-7.2-10.3-10.3-4.3-3.1-9.1-6-14.5-8.8-5.4-2.7-10.9-5.6-16.5-8.5-5.1-2.6-10.1-5.3-14.8-8.2-4.8-2.9-9-6.2-12.7-9.9-3.7-3.7-6.7-7.7-9-12.2-2.3-4.5-3.4-9.7-3.4-15.5 0-7.5 1.5-14.3 4.6-20.2 3-5.9 7.1-10.9 12.2-14.9s10.8-7.1 17.4-9.2c6.5-2.1 13.3-3.2 20.2-3.2 3.8 0 8 .3 12.5 1 4.6.7 9.1 1.6 13.5 2.8 4.4 1.2 8.6 2.7 12.5 4.4 3.9 1.7 7.1 3.7 9.5 5.8.7.7.8 2.4.3 4.9-.5 2.6-1.4 5.4-2.6 8.4-1.2 3-2.4 5.9-3.7 8.6-1.3 2.7-2.4 4.5-3.1 5.5l-7.1-1.5c-5.8-8.8-11.9-14.9-18.2-18.4-6.3-3.5-12.4-5.2-18.4-5.2-4 0-7.6.7-10.8 2-3.2 1.3-5.9 3.1-8.1 5.2-2.3 2.1-4 4.5-5.1 7-1.2 2.6-1.7 5.1-1.7 7.7 0 3.9 1.2 7.4 3.5 10.5 2.3 3.1 5.4 6 9.1 8.8 3.8 2.7 8.1 5.4 12.9 7.9 4.8 2.5 9.8 5.1 14.9 7.8 5.2 2.7 10.5 5.5 15.9 8.6 5.4 3 10.2 6.5 14.4 10.5 4.3 4 7.7 8.5 10.4 13.5 2.5 5.1 3.9 11.1 3.9 17.9zM173.3 691.8c-7.8 8.3-15.3 15.3-22.4 20.9-7.1 5.7-14 10.2-20.7 13.6-6.6 3.4-13.2 5.8-19.6 7.3-6.4 1.5-12.8 2.2-19.1 2.2-11.3 0-22.5-2.6-33.4-7.7-10.9-5.1-20.7-12.5-29.3-22.1-8.7-9.6-15.6-21.4-20.9-35.3-5.3-13.9-8-29.7-8-47.4 0-19.5 3-37.1 8.9-53 5.9-15.8 13.9-29.3 24-40.6 10.1-11.2 21.9-19.8 35.3-25.9 13.4-6.1 27.6-9.1 42.6-9.1 13.2 0 24.7 1.8 34.6 5.3 9.9 3.5 18.1 7.9 24.4 13 .7.6.5 1.8-.5 3.7-1.1 1.8-2.6 3.9-4.5 6.2-1.9 2.3-3.9 4.6-6 6.9-2.1 2.3-3.9 4.2-5.4 5.7l-6.4-1.1c-6.2-5.7-13.6-10.4-22.1-14.1-8.5-3.7-18.3-5.5-29.4-5.5-4.1 0-8.7.8-13.6 2.3-4.9 1.5-9.9 3.9-14.9 7.2-5 3.3-9.8 7.6-14.4 12.9-4.6 5.3-8.7 11.7-12.3 19.3-3.6 7.6-6.5 16.3-8.6 26.2-2.1 9.9-3.2 21.2-3.2 33.9 0 16.2 2.3 30.4 7 42.6 4.7 12.2 10.7 22.3 18.1 30.4 7.4 8.1 15.6 14.2 24.7 18.3 9.1 4.1 17.9 6.1 26.6 6.1 6.6 0 15.2-2.3 25.8-6.8 10.6-4.5 22.6-12.4 36-23.6.6.2 1.2.8 1.9 1.6s1.3 1.6 1.9 2.5c.6.9 1.2 1.7 1.6 2.5.5.7.9 1.2 1.3 1.6zM361.5 641.8c0 8.2-1 16.1-3.1 23.9-2.1 7.8-4.9 15.2-8.6 22.1-3.7 6.9-8 13.4-13.2 19.3-5.1 5.9-10.8 11-16.9 15.3-6.2 4.3-12.7 7.6-19.6 10S286 736 278.5 736c-11.6 0-22-2.2-31.3-6.6-9.3-4.4-17.3-10.4-23.9-18.1-6.6-7.7-11.8-16.8-15.4-27.4-3.6-10.6-5.4-22.1-5.4-34.5 0-8 1-16 3-23.7 2-7.8 4.8-15.2 8.4-22.2 3.6-7 7.9-13.5 13-19.4 5.1-5.9 10.7-11 16.8-15.3 6.2-4.3 12.8-7.6 19.9-10 7.1-2.4 14.5-3.7 22-3.7 11.5 0 21.8 2.2 31.2 6.6 9.3 4.4 17.3 10.4 23.9 18.2 6.6 7.7 11.8 16.9 15.4 27.5 3.6 10.4 5.4 21.9 5.4 34.4zm-28.3 5.4c0-9.6-1.6-18.8-4.8-27.5-3.2-8.7-7.3-16.4-12.2-23-5-6.6-10.7-11.9-17-15.8-6.3-3.9-12.6-5.8-18.8-5.8-9.3 0-17.1 1.8-23.4 5.3-6.3 3.5-11.4 8.4-15.3 14.5-3.8 6.2-6.6 13.4-8.3 21.8-1.7 8.4-2.6 17.5-2.6 27.2 0 9.6 1.7 18.8 5.1 27.5 3.4 8.7 7.7 16.3 12.9 22.9 5.2 6.6 10.9 11.8 17.1 15.6s12.1 5.8 17.7 5.8c8.6 0 16.1-1.6 22.3-4.8 6.2-3.2 11.3-7.8 15.4-13.8 4-6 7-13.2 9-21.6 1.9-8.3 2.9-17.8 2.9-28.3zM516.9 561.8c1.1.7 1.6 2.9 1.6 6.4-.1 3.5-.5 7.6-1.5 12.2-.9 4.6-2.1 9.4-3.6 14.2-1.5 4.9-2.9 9-4.4 12.2h-7.9c-.7-4.9-1.8-9-3.1-12.4-1.3-3.4-2.9-6.1-4.7-8.1-1.8-2-3.7-3.5-5.8-4.4-2.1-.9-4.4-1.4-6.7-1.4-2.7 0-5.8 1.1-9.4 3.4-3.6 2.3-7.3 5.8-11.1 10.6s-7.5 11-11.2 18.4c-3.7 7.5-7 16.4-10 26.8v71.6c0 1.8 2.3 3.7 6.9 5.7 4.6 1.9 12.6 3.8 24 5.5v7.9h-83.9v-7.9c8-1.8 14.3-3.6 18.8-5.4 4.5-1.8 6.8-3.7 6.8-5.8V605.1c0-4-.1-7.4-.4-10.1-.2-2.7-.5-5-.9-6.7-.4-1.7-.8-3-1.4-4-.5-1-1.1-1.8-1.6-2.4-.9-.9-1.8-1.6-2.8-2.1-1-.5-2.4-1-4-1.4-1.6-.4-3.6-.6-5.9-.8-2.3-.2-5.2-.4-8.6-.6v-7.3c7.9-2.1 15.7-4.2 23.3-6.3 7.6-2.1 14.5-4.9 20.6-8.3l6.4 6.4 2.4 41.5c3.3-6.7 6.9-13 10.7-18.8 3.8-5.8 8-10.9 12.3-15.3 4.4-4.3 9-7.7 13.8-10.1 4.8-2.4 9.8-3.7 15.1-3.7 3.9 0 8.1.5 12.6 1.5 4.6.8 9.1 2.6 13.6 5.2zM693.6 715.4c-10.4 7.2-18.9 12.4-25.7 15.6-6.8 3.2-11.9 4.8-15.3 4.8-4 0-7.4-2.8-10.1-8.4-2.7-5.6-4.1-13.3-4.4-23.2-5.5 5.5-11 10.2-16.4 14.2s-10.8 7.3-16.1 9.9c-5.2 2.6-10.2 4.4-14.9 5.7-4.7 1.2-9 1.8-12.9 1.8-4.4 0-8.9-.7-13.5-2.2-4.6-1.5-8.8-3.8-12.5-6.9-3.7-3.2-6.8-7.2-9.2-12.2-2.4-5-3.7-11-3.7-18.1 0-9.3 1.6-17 4.8-23.2 3.2-6.2 7.1-11.6 11.6-16.1 2.9-2.9 6.2-5.7 10-8.3 3.7-2.6 8.7-5.1 14.8-7.6 6.2-2.4 13.9-4.8 23.1-6.9 9.3-2.2 20.9-4.3 34.9-6.4v-25.8c0-4.1-.5-8-1.5-11.6-1-3.6-2.6-6.7-4.9-9.3-2.3-2.6-5.5-4.6-9.4-6-4-1.4-8.9-2-14.9-1.9-3.9.1-7.7.8-11.5 2s-7.1 2.9-9.9 5.1c-2.8 2.2-5 4.8-6.6 7.8-1.6 3-2.2 6.3-1.8 10 .1 1.1-1.1 2.3-3.7 3.7-2.6 1.4-5.7 2.6-9.3 3.7-3.6 1.1-7.1 1.9-10.6 2.6-3.5.6-5.9.7-7.4.4l-2.6-7.1c2.8-6.1 7.1-11.9 12.8-17.5 5.7-5.6 12.3-10.5 19.6-14.8 7.4-4.3 15.2-7.7 23.4-10.2 8.2-2.6 16.2-3.8 23.9-3.8 13.4 0 23.7 3.5 31 10.5 7.2 7 10.9 16.8 10.9 29.3v103c0 5.1.7 8.8 2 11 1.3 2.2 3.1 3.3 5.3 3.3 1.7 0 3.9-.3 6.6-.9 2.7-.6 6.5-1.9 11.3-4l2.8 8zm-104.9-3.3c7.3 0 15.1-1.9 23.3-5.6 8.2-3.7 17-9.6 26.2-17.6v-47.3c-10.2 1.7-18.7 3.4-25.3 4.9-6.6 1.6-12.1 3.2-16.4 4.8-4.3 1.6-7.7 3.4-10.2 5.2-2.6 1.8-4.8 3.8-6.8 5.8-3.2 3.3-5.7 7-7.7 11.2-2 4.2-2.9 9.2-2.9 14.9 0 4.9.7 8.8 2.2 11.9 1.5 3 3.2 5.5 5.3 7.2 2.1 1.8 4.2 3 6.5 3.6 2.3.7 4.2 1 5.8 1zM818.6 730.4v-7.9c8.8-2.3 15.2-4.3 19.4-6 4.1-1.7 6.2-3.4 6.2-5.1v-96.6c0-7.4-.4-13.5-1.3-18.1-.9-4.6-2.2-8.3-4-11-1.8-2.7-4.2-4.5-7.2-5.5s-6.6-1.5-10.9-1.5c-3.8 0-8 .9-12.6 2.7-4.6 1.8-9.6 4.7-14.9 8.8s-10.8 9.3-16.6 15.8c-5.8 6.5-11.6 14.5-17.5 24v81.3c0 1.8 2.3 3.7 6.9 5.7 4.6 1.9 10.8 3.8 18.7 5.5v7.9h-78.6v-7.9c8-2.1 14.3-3.9 18.8-5.6 4.5-1.6 6.8-3.5 6.8-5.6V600.5c0-4.7-.2-8.5-.5-11.3-.4-2.8-1.4-5-3-6.6-1.6-1.6-4.2-2.7-7.6-3.5-3.4-.7-8.2-1.5-14.4-2.2v-7.3c8.3-1.3 16-3.3 23-5.8 7.1-2.5 14-5.4 20.8-8.9l6.4 6.4 2 45.5c5.4-8.2 11.3-15.4 17.7-21.8 6.5-6.4 13-11.8 19.6-16.3 6.6-4.4 12.9-7.9 19.1-10.2 6.2-2.4 11.6-3.6 16.4-3.6 5.2 0 10.3.8 15.2 2.4 4.9 1.6 9.2 4 12.9 7.3 3.7 3.3 6.7 7.5 9 12.5 2.3 5.1 3.4 11 3.4 17.8v116.4c0 1.7 1.9 3.4 5.6 5 3.7 1.6 10.4 3.7 20 6.1v7.9h-78.8zM915.5 730.4v-7.9c8.3-1.7 14.6-3.6 19-5.6 4.4-2 6.6-3.9 6.6-5.6V608c0-6.2-.1-11.2-.4-15.1-.2-3.8-1.2-6.8-2.7-9-1.6-2.1-4.1-3.7-7.6-4.7s-8.4-1.8-14.9-2.4v-7.3c3.8-.7 7.8-1.6 12-2.6s8.4-2.2 12.5-3.5c4.1-1.3 8.1-2.6 11.9-4.1 3.8-1.5 7.2-2.9 10.4-4.4h6.2v156.4c0 1.5 2 3.3 6.1 5.4 4.1 2.1 10.6 4 19.5 5.8v7.9h-78.6zM974 500c0 3.4-.5 6.6-1.6 9.7-1.1 3-2.6 5.7-4.5 7.9-1.9 2.3-4.1 4.1-6.7 5.4-2.6 1.3-5.4 2-8.4 2-5.5 0-9.4-1.5-11.8-4.6-2.4-3-3.6-7.4-3.6-13 0-3.4.5-6.6 1.6-9.7 1.1-3 2.6-5.7 4.6-7.9 1.9-2.3 4.2-4 6.7-5.3 2.5-1.3 5.2-1.9 8.1-1.9 10.4.1 15.6 5.9 15.6 17.4zM1157.7 695.7c-7.9 9.4-14.9 16.7-20.9 22-6 5.3-11.6 9.3-16.7 12.1-5.1 2.7-10.1 4.4-15 5.1-4.9.7-10.2 1-15.9 1-8.9 0-17.6-2-26-5.9-8.5-4-16-9.6-22.6-17.1-6.6-7.4-11.9-16.5-15.8-27.2-4-10.7-5.9-22.8-5.9-36.3 0-13.2 2.4-25.5 7.2-36.9 4.8-11.4 11.4-21.4 19.7-29.9 8.3-8.5 18.2-15.2 29.5-20.1s23.6-7.4 36.7-7.4c4 0 8.1.3 12.3 1 4.2.7 8.2 1.6 12.1 2.9 3.8 1.3 7.4 2.8 10.6 4.6 3.2 1.8 5.9 3.7 8 5.9.2 1.5.1 3.5-.5 6.2s-1.5 5.5-2.6 8.5-2.3 5.8-3.7 8.6c-1.3 2.7-2.6 5-3.7 6.7l-6.8-1.8c-1-2.2-2.6-4.6-4.8-7.1-2.2-2.6-5-5-8.5-7.3s-7.6-4.2-12.4-5.8c-4.8-1.5-10.3-2.3-16.5-2.3-6.5 0-12.6 1.4-18.6 4.3-5.9 2.9-11.1 7.2-15.7 12.9s-8.2 12.8-11 21.4c-2.7 8.5-4.1 18.5-4.1 30 0 10.4 1.6 19.8 4.7 28.2 3.1 8.5 7.2 15.7 12.4 21.6 5.2 6 11.1 10.6 17.9 13.8 6.8 3.2 13.8 4.8 21.1 4.8 3.4 0 6.6-.2 9.5-.5 2.9-.3 6.1-1.2 9.6-2.8 3.5-1.6 7.5-4 12.1-7.1 4.6-3.2 10.3-7.7 17.1-13.5l7.2 7.4zM1363.1 715.4c-4.5 2.9-8.8 5.6-13 8.1-4.1 2.5-8 4.7-11.5 6.5-3.5 1.8-6.6 3.3-9.3 4.3-2.7 1-4.8 1.6-6.2 1.6-4.3 0-7.7-2.8-10.4-8.5s-4.4-14.8-5.1-27.3c-7.6 7.6-14.5 13.7-20.7 18.4-6.3 4.7-12.1 8.3-17.4 10.9-5.3 2.6-10.2 4.3-14.6 5.2-4.4.9-8.6 1.4-12.5 1.4-5.7 0-11.2-.8-16.5-2.4-5.2-1.6-9.9-4.5-13.9-8.7s-7.2-10-9.6-17.3c-2.4-7.3-3.6-16.7-3.6-28.1v-78.9c0-5.8-.2-10.4-.5-13.6-.4-3.2-1.3-5.7-2.8-7.3-1.5-1.6-3.9-2.8-7-3.4-3.2-.6-7.6-1.2-13.2-1.8v-7.3c4.4-.5 8.5-1.1 12.3-1.8 3.8-.7 7.6-1.6 11.1-2.6 3.6-1 7.2-2.1 10.9-3.4 3.7-1.3 7.5-2.7 11.5-4.3l5.1 7.1v107.2c0 8.5.6 15.6 1.9 21.4 1.3 5.7 3.1 10.3 5.5 13.7 2.4 3.4 5.3 5.8 8.8 7.3 3.5 1.5 7.4 2.2 11.8 2.2 3.9 0 7.9-.6 12-1.7 4.1-1.2 8.3-3 12.6-5.5 4.3-2.5 8.9-5.7 13.6-9.7 4.8-4 9.8-8.8 15.2-14.5v-82c0-5.5-.3-9.9-.8-13.2-.5-3.3-1.7-5.8-3.6-7.7-1.8-1.8-4.4-3.1-7.8-3.8-3.4-.7-7.8-1.2-13.4-1.5v-7.3c8.8-1.1 17.2-2.8 25.2-5.1s15.5-4.6 22.3-6.9l5.5 7.1V684c0 7.6.3 13.7.8 18.4.5 4.7 1.7 7.7 3.4 9 1.5 1 4 1.2 7.5.6 3.5-.5 8.4-2.2 14.6-4.8l1.8 8.2zM1582.8 730.4v-7.9c8.8-2.3 15.2-4.3 19.3-6 4.1-1.7 6.1-3.4 6.1-5.1v-96.6c0-7.4-.4-13.6-1.2-18.5-.8-4.9-2-8.8-3.7-11.6-1.6-2.8-3.8-4.8-6.4-5.9-2.6-1.2-5.8-1.7-9.4-1.7-4 0-8.3 1.1-12.8 3.4s-9.1 5.5-13.9 9.7-9.5 9.3-14.3 15.3c-4.8 6-9.5 12.8-14.2 20.4v85.7c0 1.7 1.9 3.4 5.7 5 3.8 1.6 10.5 3.7 20.1 6.1v7.9h-78.6v-7.9c8.8-2.3 15.2-4.3 19.3-6 4.1-1.7 6.1-3.4 6.1-5.1V615c0-7.4-.4-13.6-1.1-18.5-.7-4.9-1.9-8.8-3.6-11.6-1.6-2.8-3.8-4.8-6.4-5.9-2.6-1.2-5.8-1.7-9.6-1.7-8.3 0-17 4.3-26 12.8-9.1 8.5-18.8 20.5-29.2 36v85.7c0 1.8 2.3 3.7 6.9 5.7 4.6 1.9 10.8 3.8 18.7 5.5v7.9H1376V723c8-2.1 14.3-3.9 18.8-5.6 4.5-1.6 6.8-3.5 6.8-5.6V600.5c0-4.9-.2-8.7-.6-11.5-.4-2.8-1.5-5-3.3-6.5-1.8-1.5-4.4-2.6-7.8-3.4-3.4-.7-8-1.5-13.9-2.2v-7.3c4.6-.7 8.9-1.6 12.8-2.6 3.9-1 7.6-2.2 11.1-3.4 3.5-1.2 6.9-2.6 10.1-4 3.2-1.5 6.5-3 9.8-4.6l6.4 6.4 2 41.8c5.5-8 11-15.1 16.6-21.1 5.6-6 11.1-11.1 16.6-15.1s10.8-7 15.9-9 9.9-3 14.3-3c5.8 0 11.2.7 16.2 2.1 4.9 1.4 9.2 3.8 12.8 7.1 3.6 3.4 6.4 7.8 8.5 13.2 2.1 5.5 3.1 12.3 3.1 20.5v3.8c5.1-7.7 10.4-14.4 15.9-20.2 5.5-5.8 10.9-10.7 16.4-14.6 5.4-4 10.7-6.9 15.9-9 5.2-2 10-3 14.5-3 5.8 0 11.2.8 16.2 2.4 4.9 1.6 9.2 4 12.8 7.3 3.6 3.3 6.4 7.5 8.5 12.5 2.1 5.1 3.1 11 3.1 17.8v116.4c0 1.7 1.9 3.4 5.7 5 3.8 1.6 10.5 3.7 20.1 6.1v7.9h-78.5z"/>
</svg>
